# xmcd CD database file
#
# Track frame offsets:
#	180
#	18910
#	34357
#	49210
#	72234
#	90452
#	112053
#	142566
#	158545
#	178634
#	193251
#
# Disc length: 2777 seconds
#
# Revision: 3
# Processed by: cddbd v1.4PL0 Copyright (c) Steve Scherf et al.
# Submitted via: CDex 1.40Beta8
#
DISCID=8d0ad70b
DTITLE=Smashing Pumpkins - Acoustic Series
DYEAR=1900
DGENRE=
TTITLE0=Dancing In The Moonlight
TTITLE1=Today
TTITLE2=Disarm
TTITLE3=Mayonaise
TTITLE4=Spaxeboy
TTITLE5=Rocket
TTITLE6=Hummer
TTITLE7=Blue
TTITLE8=Cherub Rock
TTITLE9=Today
TTITLE10=Disarm/ Sunshine Of Your Love
EXTD=
EXTT0=
EXTT1=
EXTT2=
EXTT3=
EXTT4=
EXTT5=
EXTT6=
EXTT7=
EXTT8=
EXTT9=
EXTT10=
PLAYORDER=
